<?xml version="1.0" standalone="yes"?>
<svg version="1.1" xmlns="http://www.w3.org/2000/svg" xmlns:xlink="http://www.w3.org/1999/xlink" xmlns:ev="http://www.w3.org/2001/xml-events" width="363" height="363" shape-rendering="crispEdges">
<rect width="11" height="11" x="0" y="0" style="fill:#000"/><rect width="11" height="11" x="11" y="0" style="fill:#000"/><rect width="11" height="11" x="22" y="0" style="fill:#000"/><rect width="11" height="11" x="33" y="0" style="fill:#000"/><rect width="11" height="11" x="44" y="0" style="fill:#000"/><rect width="11" height="11" x="55" y="0" style="fill:#000"/><rect width="11" height="11" x="66" y="0" style="fill:#000"/><rect width="11" height="11" x="121" y="0" style="fill:#000"/><rect width="11" height="11" x="154" y="0" style="fill:#000"/><rect width="11" height="11" x="198" y="0" style="fill:#000"/><rect width="11" height="11" x="242" y="0" style="fill:#000"/><rect width="11" height="11" x="264" y="0" style="fill:#000"/><rect width="11" height="11" x="286" y="0" style="fill:#000"/><rect width="11" height="11" x="297" y="0" style="fill:#000"/><rect width="11" height="11" x="308" y="0" style="fill:#000"/><rect width="11" height="11" x="319" y="0" style="fill:#000"/><rect width="11" height="11" x="330" y="0" style="fill:#000"/><rect width="11" height="11" x="341" y="0" style="fill:#000"/><rect width="11" height="11" x="352" y="0" style="fill:#000"/>
<rect width="11" height="11" x="0" y="11" style="fill:#000"/><rect width="11" height="11" x="66" y="11" style="fill:#000"/><rect width="11" height="11" x="99" y="11" style="fill:#000"/><rect width="11" height="11" x="110" y="11" style="fill:#000"/><rect width="11" height="11" x="132" y="11" style="fill:#000"/><rect width="11" height="11" x="165" y="11" style="fill:#000"/><rect width="11" height="11" x="176" y="11" style="fill:#000"/><rect width="11" height="11" x="187" y="11" style="fill:#000"/><rect width="11" height="11" x="198" y="11" style="fill:#000"/><rect width="11" height="11" x="220" y="11" style="fill:#000"/><rect width="11" height="11" x="231" y="11" style="fill:#000"/><rect width="11" height="11" x="264" y="11" style="fill:#000"/><rect width="11" height="11" x="286" y="11" style="fill:#000"/><rect width="11" height="11" x="352" y="11" style="fill:#000"/>
<rect width="11" height="11" x="0" y="22" style="fill:#000"/><rect width="11" height="11" x="22" y="22" style="fill:#000"/><rect width="11" height="11" x="33" y="22" style="fill:#000"/><rect width="11" height="11" x="44" y="22" style="fill:#000"/><rect width="11" height="11" x="66" y="22" style="fill:#000"/><rect width="11" height="11" x="88" y="22" style="fill:#000"/><rect width="11" height="11" x="132" y="22" style="fill:#000"/><rect width="11" height="11" x="198" y="22" style="fill:#000"/><rect width="11" height="11" x="209" y="22" style="fill:#000"/><rect width="11" height="11" x="231" y="22" style="fill:#000"/><rect width="11" height="11" x="253" y="22" style="fill:#000"/><rect width="11" height="11" x="264" y="22" style="fill:#000"/><rect width="11" height="11" x="286" y="22" style="fill:#000"/><rect width="11" height="11" x="308" y="22" style="fill:#000"/><rect width="11" height="11" x="319" y="22" style="fill:#000"/><rect width="11" height="11" x="330" y="22" style="fill:#000"/><rect width="11" height="11" x="352" y="22" style="fill:#000"/>
<rect width="11" height="11" x="0" y="33" style="fill:#000"/><rect width="11" height="11" x="22" y="33" style="fill:#000"/><rect width="11" height="11" x="33" y="33" style="fill:#000"/><rect width="11" height="11" x="44" y="33" style="fill:#000"/><rect width="11" height="11" x="66" y="33" style="fill:#000"/><rect width="11" height="11" x="88" y="33" style="fill:#000"/><rect width="11" height="11" x="110" y="33" style="fill:#000"/><rect width="11" height="11" x="154" y="33" style="fill:#000"/><rect width="11" height="11" x="187" y="33" style="fill:#000"/><rect width="11" height="11" x="209" y="33" style="fill:#000"/><rect width="11" height="11" x="220" y="33" style="fill:#000"/><rect width="11" height="11" x="231" y="33" style="fill:#000"/><rect width="11" height="11" x="253" y="33" style="fill:#000"/><rect width="11" height="11" x="264" y="33" style="fill:#000"/><rect width="11" height="11" x="286" y="33" style="fill:#000"/><rect width="11" height="11" x="308" y="33" style="fill:#000"/><rect width="11" height="11" x="319" y="33" style="fill:#000"/><rect width="11" height="11" x="330" y="33" style="fill:#000"/><rect width="11" height="11" x="352" y="33" style="fill:#000"/>
<rect width="11" height="11" x="0" y="44" style="fill:#000"/><rect width="11" height="11" x="22" y="44" style="fill:#000"/><rect width="11" height="11" x="33" y="44" style="fill:#000"/><rect width="11" height="11" x="44" y="44" style="fill:#000"/><rect width="11" height="11" x="66" y="44" style="fill:#000"/><rect width="11" height="11" x="121" y="44" style="fill:#000"/><rect width="11" height="11" x="132" y="44" style="fill:#000"/><rect width="11" height="11" x="154" y="44" style="fill:#000"/><rect width="11" height="11" x="165" y="44" style="fill:#000"/><rect width="11" height="11" x="176" y="44" style="fill:#000"/><rect width="11" height="11" x="187" y="44" style="fill:#000"/><rect width="11" height="11" x="198" y="44" style="fill:#000"/><rect width="11" height="11" x="220" y="44" style="fill:#000"/><rect width="11" height="11" x="231" y="44" style="fill:#000"/><rect width="11" height="11" x="253" y="44" style="fill:#000"/><rect width="11" height="11" x="264" y="44" style="fill:#000"/><rect width="11" height="11" x="286" y="44" style="fill:#000"/><rect width="11" height="11" x="308" y="44" style="fill:#000"/><rect width="11" height="11" x="319" y="44" style="fill:#000"/><rect width="11" height="11" x="330" y="44" style="fill:#000"/><rect width="11" height="11" x="352" y="44" style="fill:#000"/>
<rect width="11" height="11" x="0" y="55" style="fill:#000"/><rect width="11" height="11" x="66" y="55" style="fill:#000"/><rect width="11" height="11" x="132" y="55" style="fill:#000"/><rect width="11" height="11" x="143" y="55" style="fill:#000"/><rect width="11" height="11" x="154" y="55" style="fill:#000"/><rect width="11" height="11" x="165" y="55" style="fill:#000"/><rect width="11" height="11" x="176" y="55" style="fill:#000"/><rect width="11" height="11" x="198" y="55" style="fill:#000"/><rect width="11" height="11" x="220" y="55" style="fill:#000"/><rect width="11" height="11" x="231" y="55" style="fill:#000"/><rect width="11" height="11" x="253" y="55" style="fill:#000"/><rect width="11" height="11" x="286" y="55" style="fill:#000"/><rect width="11" height="11" x="352" y="55" style="fill:#000"/>
<rect width="11" height="11" x="0" y="66" style="fill:#000"/><rect width="11" height="11" x="11" y="66" style="fill:#000"/><rect width="11" height="11" x="22" y="66" style="fill:#000"/><rect width="11" height="11" x="33" y="66" style="fill:#000"/><rect width="11" height="11" x="44" y="66" style="fill:#000"/><rect width="11" height="11" x="55" y="66" style="fill:#000"/><rect width="11" height="11" x="66" y="66" style="fill:#000"/><rect width="11" height="11" x="88" y="66" style="fill:#000"/><rect width="11" height="11" x="110" y="66" style="fill:#000"/><rect width="11" height="11" x="132" y="66" style="fill:#000"/><rect width="11" height="11" x="154" y="66" style="fill:#000"/><rect width="11" height="11" x="176" y="66" style="fill:#000"/><rect width="11" height="11" x="198" y="66" style="fill:#000"/><rect width="11" height="11" x="220" y="66" style="fill:#000"/><rect width="11" height="11" x="242" y="66" style="fill:#000"/><rect width="11" height="11" x="264" y="66" style="fill:#000"/><rect width="11" height="11" x="286" y="66" style="fill:#000"/><rect width="11" height="11" x="297" y="66" style="fill:#000"/><rect width="11" height="11" x="308" y="66" style="fill:#000"/><rect width="11" height="11" x="319" y="66" style="fill:#000"/><rect width="11" height="11" x="330" y="66" style="fill:#000"/><rect width="11" height="11" x="341" y="66" style="fill:#000"/><rect width="11" height="11" x="352" y="66" style="fill:#000"/>
<rect width="11" height="11" x="110" y="77" style="fill:#000"/><rect width="11" height="11" x="154" y="77" style="fill:#000"/><rect width="11" height="11" x="165" y="77" style="fill:#000"/><rect width="11" height="11" x="176" y="77" style="fill:#000"/><rect width="11" height="11" x="187" y="77" style="fill:#000"/><rect width="11" height="11" x="209" y="77" style="fill:#000"/><rect width="11" height="11" x="242" y="77" style="fill:#000"/><rect width="11" height="11" x="253" y="77" style="fill:#000"/>
<rect width="11" height="11" x="33" y="88" style="fill:#000"/><rect width="11" height="11" x="44" y="88" style="fill:#000"/><rect width="11" height="11" x="66" y="88" style="fill:#000"/><rect width="11" height="11" x="77" y="88" style="fill:#000"/><rect width="11" height="11" x="99" y="88" style="fill:#000"/><rect width="11" height="11" x="110" y="88" style="fill:#000"/><rect width="11" height="11" x="132" y="88" style="fill:#000"/><rect width="11" height="11" x="165" y="88" style="fill:#000"/><rect width="11" height="11" x="209" y="88" style="fill:#000"/><rect width="11" height="11" x="220" y="88" style="fill:#000"/><rect width="11" height="11" x="253" y="88" style="fill:#000"/><rect width="11" height="11" x="264" y="88" style="fill:#000"/><rect width="11" height="11" x="319" y="88" style="fill:#000"/><rect width="11" height="11" x="330" y="88" style="fill:#000"/>
<rect width="11" height="11" x="22" y="99" style="fill:#000"/><rect width="11" height="11" x="33" y="99" style="fill:#000"/><rect width="11" height="11" x="77" y="99" style="fill:#000"/><rect width="11" height="11" x="121" y="99" style="fill:#000"/><rect width="11" height="11" x="132" y="99" style="fill:#000"/><rect width="11" height="11" x="154" y="99" style="fill:#000"/><rect width="11" height="11" x="165" y="99" style="fill:#000"/><rect width="11" height="11" x="176" y="99" style="fill:#000"/><rect width="11" height="11" x="187" y="99" style="fill:#000"/><rect width="11" height="11" x="198" y="99" style="fill:#000"/><rect width="11" height="11" x="231" y="99" style="fill:#000"/><rect width="11" height="11" x="242" y="99" style="fill:#000"/><rect width="11" height="11" x="253" y="99" style="fill:#000"/><rect width="11" height="11" x="275" y="99" style="fill:#000"/><rect width="11" height="11" x="297" y="99" style="fill:#000"/><rect width="11" height="11" x="308" y="99" style="fill:#000"/><rect width="11" height="11" x="319" y="99" style="fill:#000"/><rect width="11" height="11" x="330" y="99" style="fill:#000"/>
<rect width="11" height="11" x="22" y="110" style="fill:#000"/><rect width="11" height="11" x="33" y="110" style="fill:#000"/><rect width="11" height="11" x="55" y="110" style="fill:#000"/><rect width="11" height="11" x="66" y="110" style="fill:#000"/><rect width="11" height="11" x="77" y="110" style="fill:#000"/><rect width="11" height="11" x="99" y="110" style="fill:#000"/><rect width="11" height="11" x="132" y="110" style="fill:#000"/><rect width="11" height="11" x="187" y="110" style="fill:#000"/><rect width="11" height="11" x="198" y="110" style="fill:#000"/><rect width="11" height="11" x="209" y="110" style="fill:#000"/><rect width="11" height="11" x="220" y="110" style="fill:#000"/><rect width="11" height="11" x="242" y="110" style="fill:#000"/><rect width="11" height="11" x="253" y="110" style="fill:#000"/><rect width="11" height="11" x="264" y="110" style="fill:#000"/><rect width="11" height="11" x="286" y="110" style="fill:#000"/><rect width="11" height="11" x="297" y="110" style="fill:#000"/><rect width="11" height="11" x="319" y="110" style="fill:#000"/><rect width="11" height="11" x="330" y="110" style="fill:#000"/><rect width="11" height="11" x="341" y="110" style="fill:#000"/><rect width="11" height="11" x="352" y="110" style="fill:#000"/>
<rect width="11" height="11" x="22" y="121" style="fill:#000"/><rect width="11" height="11" x="55" y="121" style="fill:#000"/><rect width="11" height="11" x="121" y="121" style="fill:#000"/><rect width="11" height="11" x="132" y="121" style="fill:#000"/><rect width="11" height="11" x="143" y="121" style="fill:#000"/><rect width="11" height="11" x="165" y="121" style="fill:#000"/><rect width="11" height="11" x="176" y="121" style="fill:#000"/><rect width="11" height="11" x="220" y="121" style="fill:#000"/><rect width="11" height="11" x="231" y="121" style="fill:#000"/><rect width="11" height="11" x="242" y="121" style="fill:#000"/><rect width="11" height="11" x="275" y="121" style="fill:#000"/><rect width="11" height="11" x="297" y="121" style="fill:#000"/><rect width="11" height="11" x="308" y="121" style="fill:#000"/><rect width="11" height="11" x="330" y="121" style="fill:#000"/>
<rect width="11" height="11" x="22" y="132" style="fill:#000"/><rect width="11" height="11" x="66" y="132" style="fill:#000"/><rect width="11" height="11" x="77" y="132" style="fill:#000"/><rect width="11" height="11" x="88" y="132" style="fill:#000"/><rect width="11" height="11" x="99" y="132" style="fill:#000"/><rect width="11" height="11" x="110" y="132" style="fill:#000"/><rect width="11" height="11" x="143" y="132" style="fill:#000"/><rect width="11" height="11" x="176" y="132" style="fill:#000"/><rect width="11" height="11" x="187" y="132" style="fill:#000"/><rect width="11" height="11" x="220" y="132" style="fill:#000"/><rect width="11" height="11" x="231" y="132" style="fill:#000"/><rect width="11" height="11" x="264" y="132" style="fill:#000"/><rect width="11" height="11" x="286" y="132" style="fill:#000"/><rect width="11" height="11" x="297" y="132" style="fill:#000"/><rect width="11" height="11" x="319" y="132" style="fill:#000"/><rect width="11" height="11" x="352" y="132" style="fill:#000"/>
<rect width="11" height="11" x="0" y="143" style="fill:#000"/><rect width="11" height="11" x="11" y="143" style="fill:#000"/><rect width="11" height="11" x="22" y="143" style="fill:#000"/><rect width="11" height="11" x="33" y="143" style="fill:#000"/><rect width="11" height="11" x="44" y="143" style="fill:#000"/><rect width="11" height="11" x="88" y="143" style="fill:#000"/><rect width="11" height="11" x="99" y="143" style="fill:#000"/><rect width="11" height="11" x="121" y="143" style="fill:#000"/><rect width="11" height="11" x="132" y="143" style="fill:#000"/><rect width="11" height="11" x="143" y="143" style="fill:#000"/><rect width="11" height="11" x="154" y="143" style="fill:#000"/><rect width="11" height="11" x="165" y="143" style="fill:#000"/><rect width="11" height="11" x="187" y="143" style="fill:#000"/><rect width="11" height="11" x="220" y="143" style="fill:#000"/><rect width="11" height="11" x="231" y="143" style="fill:#000"/><rect width="11" height="11" x="253" y="143" style="fill:#000"/><rect width="11" height="11" x="341" y="143" style="fill:#000"/>
<rect width="11" height="11" x="22" y="154" style="fill:#000"/><rect width="11" height="11" x="33" y="154" style="fill:#000"/><rect width="11" height="11" x="44" y="154" style="fill:#000"/><rect width="11" height="11" x="55" y="154" style="fill:#000"/><rect width="11" height="11" x="66" y="154" style="fill:#000"/><rect width="11" height="11" x="77" y="154" style="fill:#000"/><rect width="11" height="11" x="110" y="154" style="fill:#000"/><rect width="11" height="11" x="132" y="154" style="fill:#000"/><rect width="11" height="11" x="143" y="154" style="fill:#000"/><rect width="11" height="11" x="154" y="154" style="fill:#000"/><rect width="11" height="11" x="165" y="154" style="fill:#000"/><rect width="11" height="11" x="176" y="154" style="fill:#000"/><rect width="11" height="11" x="220" y="154" style="fill:#000"/><rect width="11" height="11" x="275" y="154" style="fill:#000"/><rect width="11" height="11" x="297" y="154" style="fill:#000"/><rect width="11" height="11" x="330" y="154" style="fill:#000"/>
<rect width="11" height="11" x="22" y="165" style="fill:#000"/><rect width="11" height="11" x="99" y="165" style="fill:#000"/><rect width="11" height="11" x="121" y="165" style="fill:#000"/><rect width="11" height="11" x="143" y="165" style="fill:#000"/><rect width="11" height="11" x="198" y="165" style="fill:#000"/><rect width="11" height="11" x="209" y="165" style="fill:#000"/><rect width="11" height="11" x="275" y="165" style="fill:#000"/><rect width="11" height="11" x="308" y="165" style="fill:#000"/><rect width="11" height="11" x="319" y="165" style="fill:#000"/><rect width="11" height="11" x="330" y="165" style="fill:#000"/><rect width="11" height="11" x="352" y="165" style="fill:#000"/>
<rect width="11" height="11" x="0" y="176" style="fill:#000"/><rect width="11" height="11" x="66" y="176" style="fill:#000"/><rect width="11" height="11" x="121" y="176" style="fill:#000"/><rect width="11" height="11" x="165" y="176" style="fill:#000"/><rect width="11" height="11" x="187" y="176" style="fill:#000"/><rect width="11" height="11" x="253" y="176" style="fill:#000"/><rect width="11" height="11" x="275" y="176" style="fill:#000"/><rect width="11" height="11" x="286" y="176" style="fill:#000"/><rect width="11" height="11" x="308" y="176" style="fill:#000"/><rect width="11" height="11" x="352" y="176" style="fill:#000"/>
<rect width="11" height="11" x="11" y="187" style="fill:#000"/><rect width="11" height="11" x="55" y="187" style="fill:#000"/><rect width="11" height="11" x="77" y="187" style="fill:#000"/><rect width="11" height="11" x="88" y="187" style="fill:#000"/><rect width="11" height="11" x="143" y="187" style="fill:#000"/><rect width="11" height="11" x="176" y="187" style="fill:#000"/><rect width="11" height="11" x="231" y="187" style="fill:#000"/><rect width="11" height="11" x="242" y="187" style="fill:#000"/><rect width="11" height="11" x="264" y="187" style="fill:#000"/><rect width="11" height="11" x="286" y="187" style="fill:#000"/><rect width="11" height="11" x="297" y="187" style="fill:#000"/><rect width="11" height="11" x="308" y="187" style="fill:#000"/><rect width="11" height="11" x="319" y="187" style="fill:#000"/><rect width="11" height="11" x="352" y="187" style="fill:#000"/>
<rect width="11" height="11" x="22" y="198" style="fill:#000"/><rect width="11" height="11" x="44" y="198" style="fill:#000"/><rect width="11" height="11" x="55" y="198" style="fill:#000"/><rect width="11" height="11" x="66" y="198" style="fill:#000"/><rect width="11" height="11" x="88" y="198" style="fill:#000"/><rect width="11" height="11" x="99" y="198" style="fill:#000"/><rect width="11" height="11" x="110" y="198" style="fill:#000"/><rect width="11" height="11" x="121" y="198" style="fill:#000"/><rect width="11" height="11" x="132" y="198" style="fill:#000"/><rect width="11" height="11" x="187" y="198" style="fill:#000"/><rect width="11" height="11" x="198" y="198" style="fill:#000"/><rect width="11" height="11" x="209" y="198" style="fill:#000"/><rect width="11" height="11" x="220" y="198" style="fill:#000"/><rect width="11" height="11" x="231" y="198" style="fill:#000"/><rect width="11" height="11" x="242" y="198" style="fill:#000"/><rect width="11" height="11" x="253" y="198" style="fill:#000"/><rect width="11" height="11" x="319" y="198" style="fill:#000"/><rect width="11" height="11" x="330" y="198" style="fill:#000"/><rect width="11" height="11" x="352" y="198" style="fill:#000"/>
<rect width="11" height="11" x="22" y="209" style="fill:#000"/><rect width="11" height="11" x="44" y="209" style="fill:#000"/><rect width="11" height="11" x="55" y="209" style="fill:#000"/><rect width="11" height="11" x="77" y="209" style="fill:#000"/><rect width="11" height="11" x="88" y="209" style="fill:#000"/><rect width="11" height="11" x="99" y="209" style="fill:#000"/><rect width="11" height="11" x="110" y="209" style="fill:#000"/><rect width="11" height="11" x="132" y="209" style="fill:#000"/><rect width="11" height="11" x="165" y="209" style="fill:#000"/><rect width="11" height="11" x="187" y="209" style="fill:#000"/><rect width="11" height="11" x="198" y="209" style="fill:#000"/><rect width="11" height="11" x="220" y="209" style="fill:#000"/><rect width="11" height="11" x="242" y="209" style="fill:#000"/><rect width="11" height="11" x="253" y="209" style="fill:#000"/><rect width="11" height="11" x="264" y="209" style="fill:#000"/><rect width="11" height="11" x="275" y="209" style="fill:#000"/><rect width="11" height="11" x="297" y="209" style="fill:#000"/><rect width="11" height="11" x="319" y="209" style="fill:#000"/><rect width="11" height="11" x="330" y="209" style="fill:#000"/><rect width="11" height="11" x="341" y="209" style="fill:#000"/><rect width="11" height="11" x="352" y="209" style="fill:#000"/>
<rect width="11" height="11" x="0" y="220" style="fill:#000"/><rect width="11" height="11" x="11" y="220" style="fill:#000"/><rect width="11" height="11" x="22" y="220" style="fill:#000"/><rect width="11" height="11" x="33" y="220" style="fill:#000"/><rect width="11" height="11" x="55" y="220" style="fill:#000"/><rect width="11" height="11" x="66" y="220" style="fill:#000"/><rect width="11" height="11" x="99" y="220" style="fill:#000"/><rect width="11" height="11" x="110" y="220" style="fill:#000"/><rect width="11" height="11" x="154" y="220" style="fill:#000"/><rect width="11" height="11" x="187" y="220" style="fill:#000"/><rect width="11" height="11" x="209" y="220" style="fill:#000"/><rect width="11" height="11" x="264" y="220" style="fill:#000"/><rect width="11" height="11" x="297" y="220" style="fill:#000"/><rect width="11" height="11" x="319" y="220" style="fill:#000"/>
<rect width="11" height="11" x="0" y="231" style="fill:#000"/><rect width="11" height="11" x="11" y="231" style="fill:#000"/><rect width="11" height="11" x="33" y="231" style="fill:#000"/><rect width="11" height="11" x="55" y="231" style="fill:#000"/><rect width="11" height="11" x="77" y="231" style="fill:#000"/><rect width="11" height="11" x="121" y="231" style="fill:#000"/><rect width="11" height="11" x="165" y="231" style="fill:#000"/><rect width="11" height="11" x="176" y="231" style="fill:#000"/><rect width="11" height="11" x="187" y="231" style="fill:#000"/><rect width="11" height="11" x="209" y="231" style="fill:#000"/><rect width="11" height="11" x="231" y="231" style="fill:#000"/><rect width="11" height="11" x="242" y="231" style="fill:#000"/><rect width="11" height="11" x="253" y="231" style="fill:#000"/><rect width="11" height="11" x="297" y="231" style="fill:#000"/><rect width="11" height="11" x="308" y="231" style="fill:#000"/><rect width="11" height="11" x="330" y="231" style="fill:#000"/><rect width="11" height="11" x="341" y="231" style="fill:#000"/>
<rect width="11" height="11" x="0" y="242" style="fill:#000"/><rect width="11" height="11" x="33" y="242" style="fill:#000"/><rect width="11" height="11" x="44" y="242" style="fill:#000"/><rect width="11" height="11" x="66" y="242" style="fill:#000"/><rect width="11" height="11" x="77" y="242" style="fill:#000"/><rect width="11" height="11" x="110" y="242" style="fill:#000"/><rect width="11" height="11" x="121" y="242" style="fill:#000"/><rect width="11" height="11" x="132" y="242" style="fill:#000"/><rect width="11" height="11" x="143" y="242" style="fill:#000"/><rect width="11" height="11" x="165" y="242" style="fill:#000"/><rect width="11" height="11" x="220" y="242" style="fill:#000"/><rect width="11" height="11" x="231" y="242" style="fill:#000"/><rect width="11" height="11" x="253" y="242" style="fill:#000"/><rect width="11" height="11" x="286" y="242" style="fill:#000"/><rect width="11" height="11" x="308" y="242" style="fill:#000"/><rect width="11" height="11" x="330" y="242" style="fill:#000"/><rect width="11" height="11" x="341" y="242" style="fill:#000"/><rect width="11" height="11" x="352" y="242" style="fill:#000"/>
<rect width="11" height="11" x="0" y="253" style="fill:#000"/><rect width="11" height="11" x="44" y="253" style="fill:#000"/><rect width="11" height="11" x="77" y="253" style="fill:#000"/><rect width="11" height="11" x="99" y="253" style="fill:#000"/><rect width="11" height="11" x="143" y="253" style="fill:#000"/><rect width="11" height="11" x="165" y="253" style="fill:#000"/><rect width="11" height="11" x="176" y="253" style="fill:#000"/><rect width="11" height="11" x="198" y="253" style="fill:#000"/><rect width="11" height="11" x="209" y="253" style="fill:#000"/><rect width="11" height="11" x="253" y="253" style="fill:#000"/><rect width="11" height="11" x="264" y="253" style="fill:#000"/><rect width="11" height="11" x="330" y="253" style="fill:#000"/><rect width="11" height="11" x="341" y="253" style="fill:#000"/>
<rect width="11" height="11" x="0" y="264" style="fill:#000"/><rect width="11" height="11" x="11" y="264" style="fill:#000"/><rect width="11" height="11" x="22" y="264" style="fill:#000"/><rect width="11" height="11" x="33" y="264" style="fill:#000"/><rect width="11" height="11" x="44" y="264" style="fill:#000"/><rect width="11" height="11" x="66" y="264" style="fill:#000"/><rect width="11" height="11" x="77" y="264" style="fill:#000"/><rect width="11" height="11" x="88" y="264" style="fill:#000"/><rect width="11" height="11" x="132" y="264" style="fill:#000"/><rect width="11" height="11" x="143" y="264" style="fill:#000"/><rect width="11" height="11" x="165" y="264" style="fill:#000"/><rect width="11" height="11" x="176" y="264" style="fill:#000"/><rect width="11" height="11" x="187" y="264" style="fill:#000"/><rect width="11" height="11" x="209" y="264" style="fill:#000"/><rect width="11" height="11" x="264" y="264" style="fill:#000"/><rect width="11" height="11" x="275" y="264" style="fill:#000"/><rect width="11" height="11" x="286" y="264" style="fill:#000"/><rect width="11" height="11" x="297" y="264" style="fill:#000"/><rect width="11" height="11" x="308" y="264" style="fill:#000"/><rect width="11" height="11" x="319" y="264" style="fill:#000"/><rect width="11" height="11" x="341" y="264" style="fill:#000"/><rect width="11" height="11" x="352" y="264" style="fill:#000"/>
<rect width="11" height="11" x="88" y="275" style="fill:#000"/><rect width="11" height="11" x="99" y="275" style="fill:#000"/><rect width="11" height="11" x="143" y="275" style="fill:#000"/><rect width="11" height="11" x="165" y="275" style="fill:#000"/><rect width="11" height="11" x="187" y="275" style="fill:#000"/><rect width="11" height="11" x="198" y="275" style="fill:#000"/><rect width="11" height="11" x="220" y="275" style="fill:#000"/><rect width="11" height="11" x="242" y="275" style="fill:#000"/><rect width="11" height="11" x="264" y="275" style="fill:#000"/><rect width="11" height="11" x="308" y="275" style="fill:#000"/>
<rect width="11" height="11" x="0" y="286" style="fill:#000"/><rect width="11" height="11" x="11" y="286" style="fill:#000"/><rect width="11" height="11" x="22" y="286" style="fill:#000"/><rect width="11" height="11" x="33" y="286" style="fill:#000"/><rect width="11" height="11" x="44" y="286" style="fill:#000"/><rect width="11" height="11" x="55" y="286" style="fill:#000"/><rect width="11" height="11" x="66" y="286" style="fill:#000"/><rect width="11" height="11" x="88" y="286" style="fill:#000"/><rect width="11" height="11" x="121" y="286" style="fill:#000"/><rect width="11" height="11" x="176" y="286" style="fill:#000"/><rect width="11" height="11" x="187" y="286" style="fill:#000"/><rect width="11" height="11" x="231" y="286" style="fill:#000"/><rect width="11" height="11" x="242" y="286" style="fill:#000"/><rect width="11" height="11" x="253" y="286" style="fill:#000"/><rect width="11" height="11" x="264" y="286" style="fill:#000"/><rect width="11" height="11" x="286" y="286" style="fill:#000"/><rect width="11" height="11" x="308" y="286" style="fill:#000"/><rect width="11" height="11" x="319" y="286" style="fill:#000"/>
<rect width="11" height="11" x="0" y="297" style="fill:#000"/><rect width="11" height="11" x="66" y="297" style="fill:#000"/><rect width="11" height="11" x="99" y="297" style="fill:#000"/><rect width="11" height="11" x="110" y="297" style="fill:#000"/><rect width="11" height="11" x="121" y="297" style="fill:#000"/><rect width="11" height="11" x="132" y="297" style="fill:#000"/><rect width="11" height="11" x="154" y="297" style="fill:#000"/><rect width="11" height="11" x="165" y="297" style="fill:#000"/><rect width="11" height="11" x="176" y="297" style="fill:#000"/><rect width="11" height="11" x="187" y="297" style="fill:#000"/><rect width="11" height="11" x="209" y="297" style="fill:#000"/><rect width="11" height="11" x="220" y="297" style="fill:#000"/><rect width="11" height="11" x="264" y="297" style="fill:#000"/><rect width="11" height="11" x="308" y="297" style="fill:#000"/><rect width="11" height="11" x="319" y="297" style="fill:#000"/><rect width="11" height="11" x="330" y="297" style="fill:#000"/><rect width="11" height="11" x="341" y="297" style="fill:#000"/>
<rect width="11" height="11" x="0" y="308" style="fill:#000"/><rect width="11" height="11" x="22" y="308" style="fill:#000"/><rect width="11" height="11" x="33" y="308" style="fill:#000"/><rect width="11" height="11" x="44" y="308" style="fill:#000"/><rect width="11" height="11" x="66" y="308" style="fill:#000"/><rect width="11" height="11" x="88" y="308" style="fill:#000"/><rect width="11" height="11" x="110" y="308" style="fill:#000"/><rect width="11" height="11" x="121" y="308" style="fill:#000"/><rect width="11" height="11" x="143" y="308" style="fill:#000"/><rect width="11" height="11" x="209" y="308" style="fill:#000"/><rect width="11" height="11" x="220" y="308" style="fill:#000"/><rect width="11" height="11" x="231" y="308" style="fill:#000"/><rect width="11" height="11" x="253" y="308" style="fill:#000"/><rect width="11" height="11" x="264" y="308" style="fill:#000"/><rect width="11" height="11" x="275" y="308" style="fill:#000"/><rect width="11" height="11" x="286" y="308" style="fill:#000"/><rect width="11" height="11" x="297" y="308" style="fill:#000"/><rect width="11" height="11" x="308" y="308" style="fill:#000"/><rect width="11" height="11" x="341" y="308" style="fill:#000"/>
<rect width="11" height="11" x="0" y="319" style="fill:#000"/><rect width="11" height="11" x="22" y="319" style="fill:#000"/><rect width="11" height="11" x="33" y="319" style="fill:#000"/><rect width="11" height="11" x="44" y="319" style="fill:#000"/><rect width="11" height="11" x="66" y="319" style="fill:#000"/><rect width="11" height="11" x="88" y="319" style="fill:#000"/><rect width="11" height="11" x="99" y="319" style="fill:#000"/><rect width="11" height="11" x="110" y="319" style="fill:#000"/><rect width="11" height="11" x="132" y="319" style="fill:#000"/><rect width="11" height="11" x="165" y="319" style="fill:#000"/><rect width="11" height="11" x="176" y="319" style="fill:#000"/><rect width="11" height="11" x="198" y="319" style="fill:#000"/><rect width="11" height="11" x="209" y="319" style="fill:#000"/><rect width="11" height="11" x="275" y="319" style="fill:#000"/><rect width="11" height="11" x="297" y="319" style="fill:#000"/><rect width="11" height="11" x="330" y="319" style="fill:#000"/><rect width="11" height="11" x="352" y="319" style="fill:#000"/>
<rect width="11" height="11" x="0" y="330" style="fill:#000"/><rect width="11" height="11" x="22" y="330" style="fill:#000"/><rect width="11" height="11" x="33" y="330" style="fill:#000"/><rect width="11" height="11" x="44" y="330" style="fill:#000"/><rect width="11" height="11" x="66" y="330" style="fill:#000"/><rect width="11" height="11" x="99" y="330" style="fill:#000"/><rect width="11" height="11" x="165" y="330" style="fill:#000"/><rect width="11" height="11" x="187" y="330" style="fill:#000"/><rect width="11" height="11" x="231" y="330" style="fill:#000"/><rect width="11" height="11" x="253" y="330" style="fill:#000"/><rect width="11" height="11" x="308" y="330" style="fill:#000"/><rect width="11" height="11" x="330" y="330" style="fill:#000"/><rect width="11" height="11" x="341" y="330" style="fill:#000"/><rect width="11" height="11" x="352" y="330" style="fill:#000"/>
<rect width="11" height="11" x="0" y="341" style="fill:#000"/><rect width="11" height="11" x="66" y="341" style="fill:#000"/><rect width="11" height="11" x="99" y="341" style="fill:#000"/><rect width="11" height="11" x="121" y="341" style="fill:#000"/><rect width="11" height="11" x="143" y="341" style="fill:#000"/><rect width="11" height="11" x="154" y="341" style="fill:#000"/><rect width="11" height="11" x="165" y="341" style="fill:#000"/><rect width="11" height="11" x="176" y="341" style="fill:#000"/><rect width="11" height="11" x="187" y="341" style="fill:#000"/><rect width="11" height="11" x="242" y="341" style="fill:#000"/><rect width="11" height="11" x="253" y="341" style="fill:#000"/><rect width="11" height="11" x="275" y="341" style="fill:#000"/><rect width="11" height="11" x="319" y="341" style="fill:#000"/><rect width="11" height="11" x="330" y="341" style="fill:#000"/><rect width="11" height="11" x="341" y="341" style="fill:#000"/><rect width="11" height="11" x="352" y="341" style="fill:#000"/>
<rect width="11" height="11" x="0" y="352" style="fill:#000"/><rect width="11" height="11" x="11" y="352" style="fill:#000"/><rect width="11" height="11" x="22" y="352" style="fill:#000"/><rect width="11" height="11" x="33" y="352" style="fill:#000"/><rect width="11" height="11" x="44" y="352" style="fill:#000"/><rect width="11" height="11" x="55" y="352" style="fill:#000"/><rect width="11" height="11" x="66" y="352" style="fill:#000"/><rect width="11" height="11" x="99" y="352" style="fill:#000"/><rect width="11" height="11" x="121" y="352" style="fill:#000"/><rect width="11" height="11" x="165" y="352" style="fill:#000"/><rect width="11" height="11" x="187" y="352" style="fill:#000"/><rect width="11" height="11" x="231" y="352" style="fill:#000"/><rect width="11" height="11" x="242" y="352" style="fill:#000"/><rect width="11" height="11" x="253" y="352" style="fill:#000"/><rect width="11" height="11" x="264" y="352" style="fill:#000"/><rect width="11" height="11" x="308" y="352" style="fill:#000"/>
</svg>
